<svg width="28" height="25" viewBox="0 0 28 25" fill="none" xmlns="http://www.w3.org/2000/svg">
<path d="M26.0875 0.10216L0.729079 10.5892C0.713992 10.5954 0.699366 10.6028 0.685328 10.6114C0.479696 10.7359 -0.955354 11.674 1.06815 12.515L1.08894 12.5232L7.12719 14.608C7.17326 14.624 7.22204 14.629 7.27013 14.6228C7.31821 14.6165 7.36443 14.5991 7.40556 14.5717L22.3822 4.58559C22.419 4.56109 22.4599 4.54461 22.5026 4.53707C22.7109 4.50025 23.3109 4.43129 22.9313 4.9462C22.502 5.53066 12.2724 15.3275 11.137 16.414C11.0715 16.4768 11.031 16.564 11.0238 16.6577L10.5283 22.9699C10.5283 23.0342 10.5422 23.0976 10.5691 23.1551C10.5959 23.2127 10.635 23.2627 10.6831 23.3013C10.7514 23.3473 10.8316 23.3685 10.9121 23.362C10.9926 23.3555 11.0689 23.3215 11.1299 23.2651L14.7175 19.8383C14.7742 19.7842 14.8465 19.7525 14.9224 19.7483C14.9983 19.7442 15.0733 19.7679 15.1348 19.8156L21.394 24.6725L21.4142 24.6871C21.5657 24.787 23.202 25.8046 23.6746 23.5322L27.995 1.57676C28.001 1.50721 28.0596 0.742733 27.5482 0.290942C27.0112 -0.181305 26.251 0.057156 26.1367 0.0828724C26.1198 0.0878883 26.1034 0.0943381 26.0875 0.10216Z" fill="white"/>
</svg>
