<svg width="24" height="25" viewBox="0 0 24 25" fill="none" xmlns="http://www.w3.org/2000/svg">
<path fill-rule="evenodd" clip-rule="evenodd" d="M20.5031 3.63288C18.2473 1.29137 15.2471 0.00121961 12.0504 0C5.46345 0 0.102588 5.55684 0.100283 12.3871C0.0991531 14.5706 0.649789 16.7019 1.69549 18.5801L0 25L6.33493 23.2774C8.0802 24.2647 10.0455 24.7844 12.0453 24.785H12.0504C18.6363 24.785 23.9977 19.2276 24 12.3972C24.0011 9.08697 22.7595 5.97502 20.5031 3.63346V3.63288ZM12.0504 22.6929H12.0464C10.2644 22.6924 8.51625 22.1957 6.99098 21.2578L6.62829 21.0346L2.86895 22.0567L3.87224 18.257L3.63615 17.8673C2.64203 16.2279 2.11662 14.3331 2.11775 12.3878C2.12005 6.71093 6.57559 2.09202 12.0545 2.09202C14.7073 2.09324 17.201 3.16542 19.0763 5.11192C20.9518 7.05783 21.9837 9.64531 21.9825 12.3961C21.9802 18.0734 17.5247 22.6924 12.0504 22.6924V22.6929ZM17.4983 14.9817C17.1998 14.8267 15.7319 14.0782 15.458 13.9749C15.1841 13.8715 14.9853 13.8199 14.7864 14.1299C14.5876 14.44 14.0152 15.1374 13.841 15.3434C13.6668 15.5502 13.4926 15.5757 13.1941 15.4206C12.8956 15.2656 11.9335 14.939 10.7927 13.8846C9.9052 13.0637 9.30581 12.0504 9.13169 11.7403C8.95748 11.4302 9.11334 11.2627 9.26228 11.1088C9.39635 10.9699 9.56082 10.7472 9.71037 10.5666C9.85992 10.386 9.9092 10.2565 10.0089 10.0504C10.1086 9.84362 10.0587 9.66316 9.9843 9.50803C9.90976 9.35304 9.31272 7.82941 9.06345 7.20989C8.82105 6.60643 8.57475 6.68839 8.39197 6.67829C8.21771 6.66936 8.01893 6.66761 7.81954 6.66761C7.62016 6.66761 7.29696 6.74478 7.02307 7.05491C6.74919 7.36488 5.97794 8.11397 5.97794 9.63692C5.97794 11.16 7.04773 12.6325 7.19728 12.8392C7.34679 13.0459 9.30294 16.1721 12.298 17.5134C13.0102 17.8323 13.5665 18.023 14.0003 18.1655C14.7154 18.4013 15.3663 18.3681 15.8808 18.2884C16.4544 18.1994 17.6474 17.5395 17.896 16.8165C18.1446 16.0936 18.1446 15.4735 18.0702 15.3446C17.9958 15.2158 17.7964 15.1379 17.4978 14.9829L17.4983 14.9817Z" fill="white"/>
</svg>
